<svg width="16" height="16" viewBox="0 0 16 16" fill="none" xmlns="http://www.w3.org/2000/svg">
<g id="filter">
<rect id="Transparent" width="16" height="16" fill="black" fill-opacity="0.01"/>
<path id="IconColor" d="M3.4375 2.64062L7.5625 7.8125L11.6875 2.64062H3.4375ZM1.82812 1H13.2969L13.4219 1.01562L13.5469 1.03125L13.6406 1.07812L13.75 1.125L13.8438 1.20312L13.9219 1.28125L13.9844 1.35938L14.0312 1.45312L14.0781 1.5625L14.1094 1.65625L14.125 1.76562V1.89062L14.1094 2L14.0625 2.10938L14.0156 2.21875L13.9531 2.3125L9.21875 8.375L9.20312 13.3906L9.17188 13.5469L9.10938 13.7031L9.03125 13.8281L8.90625 13.9375L8.78125 14.0312L8.64062 14.0938L8.46875 14.125H6.65625L6.5 14.0938L6.34375 14.0312L6.21875 13.9375L6.10938 13.8281L6.01562 13.7031L5.95312 13.5469L5.92188 13.3906V8.375L1.17188 2.3125L1.10938 2.21875L1.0625 2.10938L1.01562 2L1 1.89062V1.78125L1.01562 1.67188L1.04688 1.5625L1.09375 1.45312L1.14062 1.35938L1.20312 1.28125L1.29688 1.20312L1.375 1.125L1.48438 1.07812L1.57812 1.03125L1.70312 1.01562L1.82812 1Z" fill="#374151"/>
</g>
</svg>
