<svg width="127" height="12" viewBox="0 0 127 12" fill="none" xmlns="http://www.w3.org/2000/svg">
<g id="BookMyRooms">
<path d="M8.96767 8.00601C8.96767 8.4699 8.87906 8.90512 8.70184 9.31168C8.52463 9.71823 8.28226 10.0753 7.97474 10.3828C7.67243 10.6851 7.31799 10.9249 6.91144 11.1021C6.50488 11.2793 6.06966 11.3679 5.60577 11.3679H0V0.156367H5.60577C6.06966 0.156367 6.50488 0.244976 6.91144 0.422192C7.31799 0.599408 7.67243 0.841778 7.97474 1.1493C8.28226 1.45161 8.52463 1.80604 8.70184 2.2126C8.87906 2.61915 8.96767 3.05438 8.96767 3.51827C8.96767 3.72676 8.939 3.94046 8.88167 4.15937C8.82433 4.37829 8.74354 4.58938 8.6393 4.79266C8.53505 4.99594 8.40996 5.18097 8.26402 5.34776C8.11807 5.51456 7.95649 5.65268 7.77928 5.76214C7.9617 5.86117 8.12589 5.99669 8.27183 6.16869C8.41778 6.33548 8.54287 6.52052 8.64711 6.7238C8.75136 6.92707 8.82954 7.14078 8.88167 7.3649C8.939 7.58382 8.96767 7.79752 8.96767 8.00601ZM2.24387 9.12403H5.60577C5.76214 9.12403 5.90808 9.09537 6.0436 9.03803C6.17912 8.9807 6.29639 8.90252 6.39543 8.80348C6.49967 8.69924 6.58046 8.57936 6.63779 8.44384C6.69513 8.30832 6.7238 8.16238 6.7238 8.00601C6.7238 7.84964 6.69513 7.7037 6.63779 7.56818C6.58046 7.43266 6.49967 7.31539 6.39543 7.21635C6.29639 7.11211 6.17912 7.03132 6.0436 6.97398C5.90808 6.91665 5.76214 6.88798 5.60577 6.88798H2.24387V9.12403ZM2.24387 4.64411H5.60577C5.76214 4.64411 5.90808 4.61544 6.0436 4.55811C6.17912 4.50077 6.29639 4.42259 6.39543 4.32356C6.49967 4.21931 6.58046 4.09943 6.63779 3.96391C6.69513 3.82318 6.7238 3.67463 6.7238 3.51827C6.7238 3.3619 6.69513 3.21596 6.63779 3.08044C6.58046 2.94492 6.49967 2.82764 6.39543 2.72861C6.29639 2.62437 6.17912 2.54358 6.0436 2.48624C5.90808 2.42891 5.76214 2.40024 5.60577 2.40024H2.24387V4.64411Z" fill="#FD5473"/>
<path d="M21.8092 5.80905C21.8092 6.3407 21.7388 6.8541 21.5981 7.34927C21.4626 7.83922 21.2697 8.3005 21.0195 8.73312C20.7693 9.16052 20.467 9.55144 20.1126 9.90587C19.7582 10.2603 19.3672 10.5652 18.9398 10.8206C18.5124 11.0708 18.0512 11.2637 17.556 11.3992C17.0608 11.5399 16.5474 11.6103 16.0158 11.6103C15.4841 11.6103 14.9707 11.5399 14.4756 11.3992C13.9856 11.2637 13.5243 11.0708 13.0917 10.8206C12.6643 10.5652 12.2734 10.2603 11.9189 9.90587C11.5645 9.55144 11.2596 9.16052 11.0042 8.73312C10.754 8.3005 10.5585 7.83922 10.4178 7.34927C10.2823 6.8541 10.2145 6.3407 10.2145 5.80905C10.2145 5.2774 10.2823 4.76399 10.4178 4.26883C10.5585 3.77367 10.754 3.31238 11.0042 2.88498C11.2596 2.45757 11.5645 2.06666 11.9189 1.71222C12.2734 1.35779 12.6643 1.05548 13.0917 0.805292C13.5243 0.555104 13.9856 0.362251 14.4756 0.226733C14.9707 0.086002 15.4841 0.0156367 16.0158 0.0156367C16.5474 0.0156367 17.0608 0.086002 17.556 0.226733C18.0512 0.362251 18.5124 0.555104 18.9398 0.805292C19.3672 1.05548 19.7582 1.35779 20.1126 1.71222C20.467 2.06666 20.7693 2.45757 21.0195 2.88498C21.2697 3.31238 21.4626 3.77367 21.5981 4.26883C21.7388 4.76399 21.8092 5.2774 21.8092 5.80905ZM19.5809 5.80905C19.5809 5.3191 19.4871 4.85781 19.2995 4.4252C19.1118 3.98737 18.8564 3.60948 18.5333 3.29153C18.2153 2.96837 17.8375 2.71297 17.3996 2.52533C16.967 2.33769 16.5057 2.24387 16.0158 2.24387C15.5206 2.24387 15.0567 2.33769 14.6241 2.52533C14.1915 2.71297 13.8136 2.96837 13.4904 3.29153C13.1673 3.60948 12.9119 3.98737 12.7242 4.4252C12.5366 4.85781 12.4428 5.3191 12.4428 5.80905C12.4428 6.299 12.5366 6.76028 12.7242 7.1929C12.9119 7.6203 13.1673 7.99558 13.4904 8.31874C13.8136 8.6419 14.1915 8.8973 14.6241 9.08494C15.0567 9.27258 15.5206 9.3664 16.0158 9.3664C16.5057 9.3664 16.967 9.27258 17.3996 9.08494C17.8375 8.8973 18.2153 8.6419 18.5333 8.31874C18.8564 7.99558 19.1118 7.6203 19.2995 7.1929C19.4871 6.76028 19.5809 6.299 19.5809 5.80905Z" fill="#FD5473"/>
<path d="M34.4318 5.80905C34.4318 6.3407 34.3614 6.8541 34.2207 7.34927C34.0852 7.83922 33.8923 8.3005 33.6421 8.73312C33.3919 9.16052 33.0896 9.55144 32.7352 9.90587C32.3808 10.2603 31.9898 10.5652 31.5624 10.8206C31.135 11.0708 30.6738 11.2637 30.1786 11.3992C29.6834 11.5399 29.17 11.6103 28.6384 11.6103C28.1067 11.6103 27.5933 11.5399 27.0982 11.3992C26.6082 11.2637 26.1469 11.0708 25.7143 10.8206C25.2869 10.5652 24.896 10.2603 24.5415 9.90587C24.1871 9.55144 23.8822 9.16052 23.6268 8.73312C23.3766 8.3005 23.1811 7.83922 23.0404 7.34927C22.9049 6.8541 22.8371 6.3407 22.8371 5.80905C22.8371 5.2774 22.9049 4.76399 23.0404 4.26883C23.1811 3.77367 23.3766 3.31238 23.6268 2.88498C23.8822 2.45757 24.1871 2.06666 24.5415 1.71222C24.896 1.35779 25.2869 1.05548 25.7143 0.805292C26.1469 0.555104 26.6082 0.362251 27.0982 0.226733C27.5933 0.086002 28.1067 0.0156367 28.6384 0.0156367C29.17 0.0156367 29.6834 0.086002 30.1786 0.226733C30.6738 0.362251 31.135 0.555104 31.5624 0.805292C31.9898 1.05548 32.3808 1.35779 32.7352 1.71222C33.0896 2.06666 33.3919 2.45757 33.6421 2.88498C33.8923 3.31238 34.0852 3.77367 34.2207 4.26883C34.3614 4.76399 34.4318 5.2774 34.4318 5.80905ZM32.2035 5.80905C32.2035 5.3191 32.1097 4.85781 31.9221 4.4252C31.7344 3.98737 31.479 3.60948 31.1559 3.29153C30.8379 2.96837 30.46 2.71297 30.0222 2.52533C29.5896 2.33769 29.1283 2.24387 28.6384 2.24387C28.1432 2.24387 27.6793 2.33769 27.2467 2.52533C26.8141 2.71297 26.4362 2.96837 26.113 3.29153C25.7899 3.60948 25.5345 3.98737 25.3468 4.4252C25.1592 4.85781 25.0654 5.3191 25.0654 5.80905C25.0654 6.299 25.1592 6.76028 25.3468 7.1929C25.5345 7.6203 25.7899 7.99558 26.113 8.31874C26.4362 8.6419 26.8141 8.8973 27.2467 9.08494C27.6793 9.27258 28.1432 9.3664 28.6384 9.3664C29.1283 9.3664 29.5896 9.27258 30.0222 9.08494C30.46 8.8973 30.8379 8.6419 31.1559 8.31874C31.479 7.99558 31.7344 7.6203 31.9221 7.1929C32.1097 6.76028 32.2035 6.299 32.2035 5.80905Z" fill="#FD5473"/>
<path d="M38.3134 11.3679H36.0696V0.156367H38.3134V5.76214L42.4885 0.156367H45.0372L41.4955 4.88648L45.0372 11.3679H42.4885L40.0257 6.83325L38.3134 9.12403V11.3679Z" fill="#FD5473"/>
<path d="M57.3627 11.3679H55.1267V3.3619C55.1267 3.20553 55.0954 3.05959 55.0329 2.92407C54.9755 2.78855 54.8947 2.67128 54.7905 2.57224C54.6915 2.468 54.5742 2.38721 54.4387 2.32987C54.3032 2.27254 54.1572 2.24387 54.0008 2.24387C53.8445 2.24387 53.6985 2.27254 53.563 2.32987C53.4275 2.38721 53.3076 2.468 53.2034 2.57224C53.1043 2.67128 53.0262 2.78855 52.9688 2.92407C52.9115 3.05959 52.8828 3.20553 52.8828 3.3619V11.3679H50.6389V3.3619C50.6389 3.20553 50.6103 3.05959 50.5529 2.92407C50.4956 2.78855 50.4148 2.67128 50.3106 2.57224C50.2115 2.468 50.0943 2.38721 49.9587 2.32987C49.8232 2.27254 49.6773 2.24387 49.5209 2.24387C49.3646 2.24387 49.2186 2.27254 49.0831 2.32987C48.9476 2.38721 48.8277 2.468 48.7234 2.57224C48.6244 2.67128 48.5462 2.78855 48.4889 2.92407C48.4316 3.05959 48.4029 3.20553 48.4029 3.3619V11.3679H46.159V3.3619C46.159 2.89801 46.245 2.46279 46.417 2.05623C46.5942 1.64446 46.834 1.28742 47.1363 0.985114C47.4438 0.677592 47.8009 0.437829 48.2074 0.265824C48.6192 0.0886082 49.057 0 49.5209 0C49.9379 0 50.3392 0.0755775 50.7249 0.226733C51.1107 0.372676 51.4573 0.586378 51.7648 0.867839C52.0723 0.586378 52.4163 0.372676 52.7968 0.226733C53.1825 0.0755775 53.5839 0 54.0008 0C54.4647 0 54.9 0.0886082 55.3065 0.265824C55.7183 0.437829 56.0753 0.677592 56.3776 0.985114C56.6852 1.28742 56.9249 1.64446 57.0969 2.05623C57.2741 2.46279 57.3627 2.89801 57.3627 3.3619V11.3679Z" fill="#6F47FF"/>
<path d="M64.4968 11.3679H62.2608V7.85746C61.7656 7.73237 61.3096 7.53169 60.8926 7.25545C60.4808 6.9792 60.1264 6.65083 59.8293 6.27033C59.5322 5.88462 59.3002 5.45983 59.1334 4.99594C58.9719 4.52683 58.8911 4.03428 58.8911 3.51827V0.156367H61.1349V3.51827C61.1349 3.82579 61.1923 4.11767 61.307 4.39392C61.4268 4.66496 61.5884 4.90212 61.7917 5.10539C61.995 5.30867 62.2321 5.47025 62.5032 5.59013C62.7794 5.7048 63.0713 5.76214 63.3788 5.76214C63.6863 5.76214 63.9756 5.7048 64.2467 5.59013C64.5229 5.47025 64.7627 5.30867 64.966 5.10539C65.1692 4.90212 65.3282 4.66496 65.4429 4.39392C65.5628 4.11767 65.6227 3.82579 65.6227 3.51827V0.156367H67.8587V3.51827C67.8587 4.03428 67.7754 4.52683 67.6086 4.99594C67.447 5.45983 67.2176 5.88462 66.9205 6.27033C66.6235 6.65083 66.269 6.9792 65.8572 7.25545C65.4455 7.53169 64.992 7.73237 64.4968 7.85746V11.3679Z" fill="#6F47FF"/>
<path d="M71.7873 2.40024V6.88798H74.0312C74.3387 6.88798 74.628 6.83065 74.899 6.71598C75.1701 6.5961 75.4072 6.43452 75.6105 6.23124C75.8138 6.02796 75.9727 5.7908 76.0874 5.51977C76.2073 5.24352 76.2672 4.95163 76.2672 4.64411C76.2672 4.33659 76.2073 4.04731 76.0874 3.77627C75.9727 3.50002 75.8138 3.26026 75.6105 3.05698C75.4072 2.8537 75.1701 2.69473 74.899 2.58006C74.628 2.46018 74.3387 2.40024 74.0312 2.40024H71.7873ZM71.7873 11.3679H69.5434V0.156367H74.0312C74.443 0.156367 74.8391 0.211096 75.2196 0.320553C75.6001 0.424798 75.9545 0.575953 76.2829 0.774018C76.6165 0.966872 76.9188 1.20142 77.1898 1.47767C77.4661 1.74871 77.7006 2.05102 77.8935 2.3846C78.0915 2.71819 78.2427 3.07522 78.3469 3.45572C78.4564 3.83621 78.5111 4.23234 78.5111 4.64411C78.5111 5.02982 78.4616 5.4051 78.3626 5.76996C78.2687 6.13481 78.1306 6.48143 77.9482 6.8098C77.771 7.13817 77.5521 7.44048 77.2915 7.71673C77.0308 7.99298 76.739 8.23274 76.4158 8.43602L77.6589 11.3679H75.2743L74.297 9.1084L71.7873 9.12403V11.3679Z" fill="#6F47FF"/>
<path d="M91.1337 5.80905C91.1337 6.3407 91.0633 6.8541 90.9226 7.34927C90.7871 7.83922 90.5943 8.3005 90.3441 8.73312C90.0939 9.16052 89.7916 9.55144 89.4371 9.90587C89.0827 10.2603 88.6918 10.5652 88.2644 10.8206C87.837 11.0708 87.3757 11.2637 86.8805 11.3992C86.3854 11.5399 85.872 11.6103 85.3403 11.6103C84.8087 11.6103 84.2952 11.5399 83.8001 11.3992C83.3101 11.2637 82.8489 11.0708 82.4162 10.8206C81.9888 10.5652 81.5979 10.2603 81.2435 9.90587C80.889 9.55144 80.5841 9.16052 80.3287 8.73312C80.0785 8.3005 79.8831 7.83922 79.7424 7.34927C79.6068 6.8541 79.5391 6.3407 79.5391 5.80905C79.5391 5.2774 79.6068 4.76399 79.7424 4.26883C79.8831 3.77367 80.0785 3.31238 80.3287 2.88498C80.5841 2.45757 80.889 2.06666 81.2435 1.71222C81.5979 1.35779 81.9888 1.05548 82.4162 0.805292C82.8489 0.555104 83.3101 0.362251 83.8001 0.226733C84.2952 0.086002 84.8087 0.0156367 85.3403 0.0156367C85.872 0.0156367 86.3854 0.086002 86.8805 0.226733C87.3757 0.362251 87.837 0.555104 88.2644 0.805292C88.6918 1.05548 89.0827 1.35779 89.4371 1.71222C89.7916 2.06666 90.0939 2.45757 90.3441 2.88498C90.5943 3.31238 90.7871 3.77367 90.9226 4.26883C91.0633 4.76399 91.1337 5.2774 91.1337 5.80905ZM88.9055 5.80905C88.9055 5.3191 88.8117 4.85781 88.624 4.4252C88.4364 3.98737 88.181 3.60948 87.8578 3.29153C87.5399 2.96837 87.162 2.71297 86.7242 2.52533C86.2915 2.33769 85.8303 2.24387 85.3403 2.24387C84.8451 2.24387 84.3812 2.33769 83.9486 2.52533C83.516 2.71297 83.1381 2.96837 82.815 3.29153C82.4918 3.60948 82.2364 3.98737 82.0488 4.4252C81.8611 4.85781 81.7673 5.3191 81.7673 5.80905C81.7673 6.299 81.8611 6.76028 82.0488 7.1929C82.2364 7.6203 82.4918 7.99558 82.815 8.31874C83.1381 8.6419 83.516 8.8973 83.9486 9.08494C84.3812 9.27258 84.8451 9.3664 85.3403 9.3664C85.8303 9.3664 86.2915 9.27258 86.7242 9.08494C87.162 8.8973 87.5399 8.6419 87.8578 8.31874C88.181 7.99558 88.4364 7.6203 88.624 7.1929C88.8117 6.76028 88.9055 6.299 88.9055 5.80905Z" fill="#6F47FF"/>
<path d="M103.756 5.80905C103.756 6.3407 103.686 6.8541 103.545 7.34927C103.41 7.83922 103.217 8.3005 102.967 8.73312C102.716 9.16052 102.414 9.55144 102.06 9.90587C101.705 10.2603 101.314 10.5652 100.887 10.8206C100.46 11.0708 99.9983 11.2637 99.5031 11.3992C99.008 11.5399 98.4946 11.6103 97.9629 11.6103C97.4313 11.6103 96.9178 11.5399 96.4227 11.3992C95.9327 11.2637 95.4714 11.0708 95.0388 10.8206C94.6114 10.5652 94.2205 10.2603 93.8661 9.90587C93.5116 9.55144 93.2067 9.16052 92.9513 8.73312C92.7011 8.3005 92.5057 7.83922 92.3649 7.34927C92.2294 6.8541 92.1617 6.3407 92.1617 5.80905C92.1617 5.2774 92.2294 4.76399 92.3649 4.26883C92.5057 3.77367 92.7011 3.31238 92.9513 2.88498C93.2067 2.45757 93.5116 2.06666 93.8661 1.71222C94.2205 1.35779 94.6114 1.05548 95.0388 0.805292C95.4714 0.555104 95.9327 0.362251 96.4227 0.226733C96.9178 0.086002 97.4313 0.0156367 97.9629 0.0156367C98.4946 0.0156367 99.008 0.086002 99.5031 0.226733C99.9983 0.362251 100.46 0.555104 100.887 0.805292C101.314 1.05548 101.705 1.35779 102.06 1.71222C102.414 2.06666 102.716 2.45757 102.967 2.88498C103.217 3.31238 103.41 3.77367 103.545 4.26883C103.686 4.76399 103.756 5.2774 103.756 5.80905ZM101.528 5.80905C101.528 5.3191 101.434 4.85781 101.247 4.4252C101.059 3.98737 100.804 3.60948 100.48 3.29153C100.162 2.96837 99.7846 2.71297 99.3468 2.52533C98.9141 2.33769 98.4529 2.24387 97.9629 2.24387C97.4677 2.24387 97.0038 2.33769 96.5712 2.52533C96.1386 2.71297 95.7607 2.96837 95.4376 3.29153C95.1144 3.60948 94.859 3.98737 94.6714 4.4252C94.4837 4.85781 94.3899 5.3191 94.3899 5.80905C94.3899 6.299 94.4837 6.76028 94.6714 7.1929C94.859 7.6203 95.1144 7.99558 95.4376 8.31874C95.7607 8.6419 96.1386 8.8973 96.5712 9.08494C97.0038 9.27258 97.4677 9.3664 97.9629 9.3664C98.4529 9.3664 98.9141 9.27258 99.3468 9.08494C99.7846 8.8973 100.162 8.6419 100.48 8.31874C100.804 7.99558 101.059 7.6203 101.247 7.1929C101.434 6.76028 101.528 6.299 101.528 5.80905Z" fill="#6F47FF"/>
<path d="M116.52 11.3679H114.284V3.3619C114.284 3.20553 114.252 3.05959 114.19 2.92407C114.132 2.78855 114.052 2.67128 113.947 2.57224C113.848 2.468 113.731 2.38721 113.596 2.32987C113.46 2.27254 113.314 2.24387 113.158 2.24387C113.001 2.24387 112.855 2.27254 112.72 2.32987C112.584 2.38721 112.465 2.468 112.36 2.57224C112.261 2.67128 112.183 2.78855 112.126 2.92407C112.068 3.05959 112.04 3.20553 112.04 3.3619V11.3679H109.796V3.3619C109.796 3.20553 109.767 3.05959 109.71 2.92407C109.653 2.78855 109.572 2.67128 109.467 2.57224C109.368 2.468 109.251 2.38721 109.116 2.32987C108.98 2.27254 108.834 2.24387 108.678 2.24387C108.521 2.24387 108.376 2.27254 108.24 2.32987C108.104 2.38721 107.985 2.468 107.88 2.57224C107.781 2.67128 107.703 2.78855 107.646 2.92407C107.588 3.05959 107.56 3.20553 107.56 3.3619V11.3679H105.316V3.3619C105.316 2.89801 105.402 2.46279 105.574 2.05623C105.751 1.64446 105.991 1.28742 106.293 0.985114C106.601 0.677592 106.958 0.437829 107.364 0.265824C107.776 0.0886082 108.214 0 108.678 0C109.095 0 109.496 0.0755775 109.882 0.226733C110.268 0.372676 110.614 0.586378 110.922 0.867839C111.229 0.586378 111.573 0.372676 111.954 0.226733C112.339 0.0755775 112.741 0 113.158 0C113.622 0 114.057 0.0886082 114.463 0.265824C114.875 0.437829 115.232 0.677592 115.535 0.985114C115.842 1.28742 116.082 1.64446 116.254 2.05623C116.431 2.46279 116.52 2.89801 116.52 3.3619V11.3679Z" fill="#6F47FF"/>
<path d="M118.032 3.51827C118.032 3.05438 118.121 2.61915 118.298 2.2126C118.475 1.80604 118.715 1.45161 119.017 1.1493C119.325 0.841778 119.682 0.599408 120.089 0.422192C120.495 0.244976 120.93 0.156367 121.394 0.156367H126.539V2.40024H121.394C121.238 2.40024 121.092 2.42891 120.956 2.48624C120.821 2.54358 120.701 2.62437 120.597 2.72861C120.498 2.82764 120.42 2.94492 120.362 3.08044C120.305 3.21596 120.276 3.3619 120.276 3.51827C120.276 3.67463 120.305 3.82318 120.362 3.96391C120.42 4.09943 120.498 4.21931 120.597 4.32356C120.701 4.42259 120.821 4.50077 120.956 4.55811C121.092 4.61544 121.238 4.64411 121.394 4.64411H123.638C124.102 4.64411 124.537 4.73272 124.944 4.90993C125.356 5.08194 125.713 5.3217 126.015 5.62922C126.322 5.93154 126.562 6.28857 126.734 6.70034C126.911 7.1069 127 7.54212 127 8.00601C127 8.4699 126.911 8.90512 126.734 9.31168C126.562 9.71823 126.322 10.0753 126.015 10.3828C125.713 10.6851 125.356 10.9249 124.944 11.1021C124.537 11.2793 124.102 11.3679 123.638 11.3679H118.658V9.12403H123.638C123.794 9.12403 123.94 9.09537 124.076 9.03803C124.211 8.9807 124.329 8.90252 124.428 8.80348C124.532 8.69924 124.613 8.57936 124.67 8.44384C124.727 8.30832 124.756 8.16238 124.756 8.00601C124.756 7.84964 124.727 7.7037 124.67 7.56818C124.613 7.43266 124.532 7.31539 124.428 7.21635C124.329 7.11211 124.211 7.03132 124.076 6.97398C123.94 6.91665 123.794 6.88798 123.638 6.88798H121.394C120.93 6.88798 120.495 6.79937 120.089 6.62216C119.682 6.44494 119.325 6.20518 119.017 5.90287C118.715 5.59535 118.475 5.23831 118.298 4.83175C118.121 4.41998 118.032 3.98216 118.032 3.51827Z" fill="#6F47FF"/>
</g>
</svg>
