<svg width="12" height="12" viewBox="0 0 12 12" fill="none" xmlns="http://www.w3.org/2000/svg">
<g id="Frame" clip-path="url(#clip0_121_5073)">
<path id="Vector" d="M4.5 0.208724C4.57321 0.297683 4.61806 0.406553 4.62876 0.521266C4.63945 0.635979 4.6155 0.751263 4.56 0.852224C4.12639 1.64833 3.89995 2.54069 3.9015 3.44722C3.9015 6.46297 6.36 8.90497 9.39 8.90497C9.78525 8.90497 10.17 8.86372 10.5398 8.78497C10.6531 8.76043 10.7712 8.76982 10.8792 8.81197C10.9872 8.85412 11.0805 8.92716 11.1473 9.02197C11.2177 9.12056 11.2537 9.23968 11.2495 9.3608C11.2453 9.48192 11.2012 9.59826 11.124 9.69172C10.5358 10.4143 9.79369 10.9965 8.95188 11.3959C8.11007 11.7952 7.18974 12.0017 6.258 12.0002C2.8005 12.0002 0 9.21472 0 5.78272C0 3.19972 1.5855 0.984224 3.843 0.0452239C3.95545 -0.00230223 4.08029 -0.0120568 4.19876 0.0174256C4.31723 0.046908 4.42294 0.114035 4.5 0.208724Z" fill="#E879F9"/>
</g>
<defs>
<clipPath id="clip0_121_5073">
<rect width="12" height="12" fill="white"/>
</clipPath>
</defs>
</svg>
